REM DIRINDEX 1\2,1\4,1\5,1\6,1\7,1\3\8,1\3\9,1\3\10
REM DIRNAME cjc113,folder01,folder02,folder03,folder04,folder05,folder06,folder07,folder08,folder09
TITLE ""
FILE "DB4500_5th_2A_45.mp3" MP3
  TRACK 01 AUDIO
    TITLE "8:cjc113_1670"
    INDEX 01 00:00:00
  TRACK 02 AUDIO
    TITLE "0:"
    INDEX 01 00:01:21
  TRACK 03 AUDIO
    TITLE "9:cjc113_1671"
    INDEX 01 00:01:42
  TRACK 04 AUDIO
    TITLE "0:"
    INDEX 01 00:03:00
  TRACK 05 AUDIO
    TITLE "10:cjc113_1672"
    INDEX 01 00:03:21
  TRACK 06 AUDIO
    TITLE "0:"
    INDEX 01 00:06:61
  TRACK 07 AUDIO
    TITLE "8:cjc113_1673"
    INDEX 01 00:07:33
  TRACK 08 AUDIO
    TITLE "0:"
    INDEX 01 00:08:48
  TRACK 09 AUDIO
    TITLE "9:cjc113_1674"
    INDEX 01 00:08:72
  TRACK 10 AUDIO
    TITLE "0:"
    INDEX 01 00:10:27
  TRACK 11 AUDIO
    TITLE "10:cjc113_1675"
    INDEX 01 00:10:51
  TRACK 12 AUDIO
    TITLE "0:"
    INDEX 01 00:13:24
  TRACK 13 AUDIO
    TITLE "8:cjc113_1676"
    INDEX 01 00:13:71
  TRACK 14 AUDIO
    TITLE "0:"
    INDEX 01 00:15:03
  TRACK 15 AUDIO
    TITLE "9:cjc113_1677"
    INDEX 01 00:15:23
  TRACK 16 AUDIO
    TITLE "0:"
    INDEX 01 00:16:42
  TRACK 17 AUDIO
    TITLE "10:cjc113_1678"
    INDEX 01 00:16:67
  TRACK 18 AUDIO
    TITLE "0:"
    INDEX 01 00:19:40
  TRACK 19 AUDIO
    TITLE "8:cjc113_1679"
    INDEX 01 00:20:10
  TRACK 20 AUDIO
    TITLE "0:"
    INDEX 01 00:21:15
  TRACK 21 AUDIO
    TITLE "9:cjc113_1680"
    INDEX 01 00:21:39
  TRACK 22 AUDIO
    TITLE "0:"
    INDEX 01 00:22:34
  TRACK 23 AUDIO
    TITLE "10:cjc113_1681"
    INDEX 01 00:22:56
  TRACK 24 AUDIO
    TITLE "0:"
    INDEX 01 00:25:27
  TRACK 25 AUDIO
    TITLE "8:cjc113_1682"
    INDEX 01 00:26:01
  TRACK 26 AUDIO
    TITLE "0:"
    INDEX 01 00:27:10
  TRACK 27 AUDIO
    TITLE "9:cjc113_1683"
    INDEX 01 00:27:28
  TRACK 28 AUDIO
    TITLE "0:"
    INDEX 01 00:28:60
  TRACK 29 AUDIO
    TITLE "10:cjc113_1684"
    INDEX 01 00:29:05
  TRACK 30 AUDIO
    TITLE "0:"
    INDEX 01 00:31:43
  TRACK 31 AUDIO
    TITLE "10:cjc113_1685"
    INDEX 01 00:32:05
  TRACK 32 AUDIO
    TITLE "0:"
    INDEX 01 00:35:70
  TRACK 33 AUDIO
    TITLE "8:cjc113_1686"
    INDEX 01 00:36:36
  TRACK 34 AUDIO
    TITLE "0:"
    INDEX 01 00:37:46
  TRACK 35 AUDIO
    TITLE "9:cjc113_1687"
    INDEX 01 00:37:69
  TRACK 36 AUDIO
    TITLE "0:"
    INDEX 01 00:39:60
  TRACK 37 AUDIO
    TITLE "10:cjc113_1688"
    INDEX 01 00:40:09
  TRACK 38 AUDIO
    TITLE "0:"
    INDEX 01 00:42:68
  TRACK 39 AUDIO
    TITLE "8:cjc113_1689"
    INDEX 01 00:43:40
  TRACK 40 AUDIO
    TITLE "0:"
    INDEX 01 00:44:63
  TRACK 41 AUDIO
    TITLE "9:cjc113_1690"
    INDEX 01 00:45:12
  TRACK 42 AUDIO
    TITLE "0:"
    INDEX 01 00:46:54
  TRACK 43 AUDIO
    TITLE "10:cjc113_1691"
    INDEX 01 00:47:01
  TRACK 44 AUDIO
    TITLE "0:"
    INDEX 01 00:49:63
  TRACK 45 AUDIO
    TITLE "8:cjc113_1692"
    INDEX 01 00:50:37
  TRACK 46 AUDIO
    TITLE "0:"
    INDEX 01 00:51:54
  TRACK 47 AUDIO
    TITLE "9:cjc113_1693"
    INDEX 01 00:52:04
  TRACK 48 AUDIO
    TITLE "0:"
    INDEX 01 00:53:57
  TRACK 49 AUDIO
    TITLE "10:cjc113_1694"
    INDEX 01 00:54:03
  TRACK 50 AUDIO
    TITLE "0:"
    INDEX 01 00:56:69
  TRACK 51 AUDIO
    TITLE "8:cjc113_1695"
    INDEX 01 00:57:41
  TRACK 52 AUDIO
    TITLE "0:"
    INDEX 01 00:58:73
  TRACK 53 AUDIO
    TITLE "9:cjc113_1696"
    INDEX 01 00:59:22
  TRACK 54 AUDIO
    TITLE "0:"
    INDEX 01 01:01:03
  TRACK 55 AUDIO
    TITLE "10:cjc113_1697"
    INDEX 01 01:01:29
  TRACK 56 AUDIO
    TITLE "0:"
    INDEX 01 01:04:09
  TRACK 57 AUDIO
    TITLE "8:cjc113_1698"
    INDEX 01 01:04:56
  TRACK 58 AUDIO
    TITLE "0:"
    INDEX 01 01:06:24
  TRACK 59 AUDIO
    TITLE "9:cjc113_1699"
    INDEX 01 01:06:49
  TRACK 60 AUDIO
    TITLE "0:"
    INDEX 01 01:08:33
  TRACK 61 AUDIO
    TITLE "10:cjc113_1700"
    INDEX 01 01:08:56
  TRACK 62 AUDIO
    TITLE "0:"
    INDEX 01 01:11:66
  TRACK 63 AUDIO
    TITLE "8:cjc113_1701"
    INDEX 01 01:12:38
  TRACK 64 AUDIO
    TITLE "0:"
    INDEX 01 01:13:73
  TRACK 65 AUDIO
    TITLE "9:cjc113_1702"
    INDEX 01 01:14:21
  TRACK 66 AUDIO
    TITLE "0:"
    INDEX 01 01:15:66
  TRACK 67 AUDIO
    TITLE "10:cjc113_1703"
    INDEX 01 01:16:12
  TRACK 68 AUDIO
    TITLE "0:"
    INDEX 01 01:19:27
  TRACK 69 AUDIO
    TITLE "8:cjc113_1704"
    INDEX 01 01:20:00
  TRACK 70 AUDIO
    TITLE "0:"
    INDEX 01 01:21:18
  TRACK 71 AUDIO
    TITLE "9:cjc113_1705"
    INDEX 01 01:21:39
  TRACK 72 AUDIO
    TITLE "0:"
    INDEX 01 01:23:07
  TRACK 73 AUDIO
    TITLE "10:cjc113_1706"
    INDEX 01 01:23:28
  TRACK 74 AUDIO
    TITLE "0:"
    INDEX 01 01:26:64
  TRACK 75 AUDIO
    TITLE "8:cjc113_1707"
    INDEX 01 01:27:36
  TRACK 76 AUDIO
    TITLE "0:"
    INDEX 01 01:28:57
  TRACK 77 AUDIO
    TITLE "9:cjc113_1708"
    INDEX 01 01:29:03
  TRACK 78 AUDIO
    TITLE "0:"
    INDEX 01 01:30:22
  TRACK 79 AUDIO
    TITLE "10:cjc113_1709"
    INDEX 01 01:30:44
  TRACK 80 AUDIO
    TITLE "0:"
    INDEX 01 01:34:18
  TRACK 81 AUDIO
    TITLE "8:cjc113_1710"
    INDEX 01 01:34:65
  TRACK 82 AUDIO
    TITLE "0:"
    INDEX 01 01:36:03
  TRACK 83 AUDIO
    TITLE "9:cjc113_1711"
    INDEX 01 01:36:27
  TRACK 84 AUDIO
    TITLE "0:"
    INDEX 01 01:37:48
  TRACK 85 AUDIO
    TITLE "10:cjc113_1712"
    INDEX 01 01:37:69
  TRACK 86 AUDIO
    TITLE "0:"
    INDEX 01 01:41:36
